:SAMPLES-PER-SECOND 30
:FRAME-RANGE 1-1086
:FULLY-SPECIFIED
:DEGREES
544
root  34.8399 38.1839 96.1152 -165.881 3.14487 -173.952
RightUpLeg  -24.9363 -12.8983 0.923953
RightLeg  20.6677 -10.0652 -4.33622
RightFoot  -3.90518 -0.607917 8.92688
RightToes  1.21801e-010 1.2921e-014 -6.02303e-014
Spine  5.14195 5.45036 13.9811
Spine1  5.24561 8.98952 -12.9775
HEad  -5.29265 -17.2913 7.45158
LeftShoulder1  1.40599 -2.8974 -16.1698
LeftArm  -11.0375 -27.7078 -44.2855
LeftForeArm  -9.06305 -43.561 -11.2186
LeftHand  -0.030977 4.98897 1.55409
RightShoulder  2.05535 9.52573 8.70556
RightArm  -17.3929 54.8579 63.0286
RightForeArm  12.8319 7.96702 1.42935
RightHand  -0.00986095 -4.2775 1.39352
LeftUpLeg  -33.4443 -21.3402 16.2051
LeftLeg  29.5078 -6.89006 -3.86394
LeftFoot  -9.39694 0.105311 -2.88393
LeftToes  3.79492e-011 -8.60219e-011 1.56273e-011
545
root  35.3555 38.2723 96.0283 -165.426 1.68333 -174.483
RightUpLeg  -24.9778 -14.6586 1.55994
RightLeg  20.3652 -9.90621 -3.97912
RightFoot  -4.62164 -0.503264 8.02214
RightToes  1.21801e-010 1.2921e-014 -6.02303e-014
Spine  5.51986 5.13644 14.3623
Spine1  4.89186 8.67618 -13.2457
HEad  -5.98192 -20.1262 9.20747
LeftShoulder1  1.46801 -3.31247 -15.6423
LeftArm  -9.27445 -29.6494 -44.3544
LeftForeArm  -10.7026 -41.0046 -10.3743
LeftHand  -0.0329094 4.8673 1.82231
RightShoulder  2.08302 9.82332 8.53656
RightArm  -18.4242 55.4844 63.0968
RightForeArm  13.5565 4.56114 -0.107692
RightHand  -0.0121231 -4.3944 1.35493
LeftUpLeg  -33.5229 -22.5507 17.1704
LeftLeg  27.7959 -7.1202 -3.72323
LeftFoot  -9.10501 0.12766 -3.74281
LeftToes  3.79492e-011 -8.60219e-011 1.56273e-011
546
root  35.869 38.3309 95.9447 -164.958 0.927994 -174.874
RightUpLeg  -24.8414 -14.3734 1.91843
RightLeg  19.8212 -11.0739 -4.00061
RightFoot  -5.36013 -0.418721 7.3052
RightToes  1.21801e-010 1.2921e-014 -6.02303e-014
Spine  5.73227 5.12913 14.5741
Spine1  4.73936 8.66755 -13.2681
HEad  -6.91035 -22.3269 10.6632
LeftShoulder1  1.51289 -3.63293 -15.2301
LeftArm  -8.13896 -30.8368 -44.6299
LeftForeArm  -10.673 -39.2175 -9.76237
LeftHand  -0.0335313 4.8708 2.01172
RightShoulder  2.0405 9.78749 8.22054
RightArm  -18.6776 56.2233 63.7387
RightForeArm  14.2471 1.49189 -1.37056
RightHand  -0.0103458 -4.15035 1.24354
LeftUpLeg  -33.283 -22.8803 17.924
LeftLeg  26.1211 -7.31339 -3.559
LeftFoot  -9.08882 0.137816 -4.23775
LeftToes  3.79492e-011 -8.60219e-011 1.56273e-011
547
root  36.3338 38.3688 95.8641 -164.544 0.693863 -175.286
RightUpLeg  -25.1168 -13.7232 2.18158
RightLeg  19.994 -11.8817 -4.29715
RightFoot  -5.97844 -0.367774 6.9739
RightToes  1.21801e-010 1.2921e-014 -6.02303e-014
Spine  5.88246 5.24733 14.6884
Spine1  4.66907 8.70535 -12.9487
HEad  -7.82196 -23.5841 11.4158
LeftShoulder1  1.54311 -3.76502 -15.2525
LeftArm  -7.39048 -31.312 -44.8218
LeftForeArm  -10.3408 -37.5879 -9.21827
LeftHand  -0.0352897 4.67753 1.89752
RightShoulder  2.06844 10.0107 8.16405
RightArm  -19.3643 56.8427 64.1081
RightForeArm  15.9088 -0.226768 -2.45185
RightHand  -0.0141529 -4.11727 0.817059
LeftUpLeg  -32.8895 -22.8125 18.4045
LeftLeg  24.6469 -7.53293 -3.43395
LeftFoot  -9.13171 0.145596 -4.71038
LeftToes  3.79492e-011 -8.60219e-011 1.56273e-011
548
root  36.7519 38.3861 95.8015 -164.177 1.10904 -175.62
RightUpLeg  -25.7152 -13.0815 2.62799
RightLeg  20.5129 -11.9823 -4.7662
RightFoot  -6.46075 -0.325283 6.5925
RightToes  1.21801e-010 1.2921e-014 -6.02303e-014
Spine  6.22878 5.30642 14.9079
Spine1  4.48796 8.81883 -13.0092
HEad  -8.83979 -24.1036 12.0662
LeftShoulder1  1.54855 -3.72239 -15.482
LeftArm  -7.08284 -30.9934 -44.7427
LeftForeArm  -10.5117 -36.7987 -8.9825
LeftHand  -0.0383443 4.45821 1.98352
RightShoulder  2.09257 10.1579 8.17553
RightArm  -18.6659 57.3423 65.2071
RightForeArm  15.408 -1.01394 -2.70904
RightHand  -0.0247787 -4.49775 -0.0310508
LeftUpLeg  -32.4169 -22.1911 18.6347
LeftLeg  23.5739 -7.66723 -3.32517
LeftFoot  -9.19079 0.151887 -5.15629
LeftToes  3.79492e-011 -8.60219e-011 1.56273e-011
549
root  37.1908 38.4087 95.7366 -163.63 2.37262 -175.74
RightUpLeg  -26.3605 -11.7454 3.19903
RightLeg  20.6272 -11.9908 -5.05756
RightFoot  -6.77116 -0.285217 5.98652
RightToes  1.21801e-010 1.2921e-014 -6.02303e-014
Spine  6.1185 5.64992 14.9202
Spine1  4.66232 9.27223 -13.0953
HEad  -9.48905 -24.188 12.611
LeftShoulder1  1.55131 -3.69901 -15.6054
LeftArm  -7.35586 -30.2261 -44.6726
LeftForeArm  -10.7336 -36.1478 -8.79655
LeftHand  -0.0399129 4.23907 1.86825
RightShoulder  2.11447 10.3773 8.0765
RightArm  -17.9471 57.5392 66.7257
RightForeArm  15.2513 -0.998182 -2.82032
RightHand  -0.0303611 -4.90406 -1.07945
LeftUpLeg  -31.7259 -20.5025 18.7781
LeftLeg  22.5609 -8.02514 -3.32289
LeftFoot  -9.32104 0.155295 -5.63801
LeftToes  3.79492e-011 -8.60219e-011 1.56273e-011
550
root  37.5555 38.4239 95.6467 -163.523 3.33163 -176.058
RightUpLeg  -26.4652 -10.6445 3.23736
RightLeg  20.8873 -12.1419 -5.2434
RightFoot  -7.24116 -0.251045 5.6316
RightToes  1.21801e-010 1.2921e-014 -6.02303e-014
Spine  6.09853 5.7957 14.963
Spine1  4.81613 9.39529 -12.807
HEad  -9.26194 -24.5577 12.7295
LeftShoulder1  1.58399 -3.73824 -15.9777
LeftArm  -7.82557 -29.3475 -44.5972
LeftForeArm  -10.7412 -35.2629 -8.53391
LeftHand  -0.0457947 3.9243 2.07699
RightShoulder  2.12504 10.3514 8.19618
RightArm  -16.9428 57.5178 68.3261
RightForeArm  15.9727 -0.986783 -2.69733
RightHand  -0.0343734 -4.86723 -2.14457
LeftUpLeg  -30.5151 -19.6699 18.6129
LeftLeg  21.1785 -7.95985 -3.06684
LeftFoot  -9.59319 0.147555 -5.90228
LeftToes  3.79492e-011 -8.60219e-011 1.56273e-011
